# File created by Blade
# Date/Time:  Tue Sep 23 19:06:47 2014
# Frame Rate: 120.000 fps
#------------------------------------------------------
:FULLY-SPECIFIED
:DEGREES
732
root 2.377071 34.890322 -4.133774 60.407111 -12.288127 -44.233599
Spine -43.078277 33.260188 13.655161
Head -14.020352 3.511955 11.367392
LeftShoulder -20.553466 18.005675 36.794919
LeftArm 31.605197 -79.279645 7.582498
LeftForeArm 100.501824 -0.000000 15.105413
LeftHand -18.466295 0.000000 63.669724
LeftHandThumb1 -26.253704 0.000000 33.147579
RightShoulder -9.472573 -7.529096 -20.082772
RightArm 118.194574 40.427619 154.091084
RightForeArm 50.694289 -0.000000 59.011138
RightHand -0.076129 -0.000000 24.798505
RightHandThumb1 -24.326973 -0.000000 -32.862282
LeftUpLeg -40.542761 26.420927 27.744499
LeftLeg 12.112862 -0.000000 -0.000000
LeftFoot -4.323075 21.044321 11.052846
LeftToeBase -4.229896 -0.000000 0.000000
RightUpLeg -178.722028 -39.682024 55.230531
RightLeg -1.485915 -0.000000 0.000000
RightFoot 29.858966 -23.315764 15.090189
RightToeBase 31.595120 -0.000000 -0.000000
733
root 2.411840 34.864101 -4.120449 60.403458 -12.264622 -44.065354
Spine -42.796525 33.465358 13.812302
Head -14.616493 3.441200 10.514816
LeftShoulder -20.557994 18.179794 36.582641
LeftArm 30.771181 -79.140925 7.821771
LeftForeArm 100.502994 0.000000 15.133455
LeftHand -18.533548 -0.000000 63.777499
LeftHandThumb1 -26.253704 0.000000 33.147579
RightShoulder -9.526706 -7.777550 -20.085484
RightArm 118.279940 40.509858 154.158525
RightForeArm 51.483166 -0.000000 58.706221
RightHand 0.315414 -0.000000 24.582431
RightHandThumb1 -24.326973 -0.000000 -32.862282
LeftUpLeg -40.643135 26.107478 27.695507
LeftLeg 12.176469 -0.000000 -0.000000
LeftFoot -4.498504 21.171947 11.001266
LeftToeBase -4.180693 -0.000000 0.000000
RightUpLeg -178.391983 -39.524898 55.100307
RightLeg -1.271209 -0.000000 0.000000
RightFoot 30.003641 -23.212772 14.663897
RightToeBase 31.565598 -0.000000 -0.000000
734
root 2.449062 34.839747 -4.106711 60.373656 -12.227679 -43.911103
Spine -42.473170 33.658535 14.039446
Head -15.152123 3.394775 9.651811
LeftShoulder -20.562698 18.284288 36.349533
LeftArm 29.827865 -78.847626 8.259236
LeftForeArm 100.447145 -0.000000 15.068489
LeftHand -18.597035 0.000000 63.882537
LeftHandThumb1 -26.253704 0.000000 33.147579
RightShoulder -9.522949 -7.955871 -20.077027
RightArm 118.346302 40.613850 154.248728
RightForeArm 52.113884 -0.000000 58.394404
RightHand 0.687214 -0.000000 24.297142
RightHandThumb1 -24.326973 -0.000000 -32.862282
LeftUpLeg -40.719669 25.801025 27.662115
LeftLeg 12.211540 -0.000000 -0.000000
LeftFoot -4.465538 21.340876 11.226848
LeftToeBase -4.441912 -0.000000 0.000000
RightUpLeg -177.996575 -39.360913 54.957131
RightLeg -1.055448 -0.000000 0.000000
RightFoot 30.062542 -23.289033 14.322976
RightToeBase 31.427078 -0.000000 -0.000000
735
root 2.487184 34.815535 -4.092334 60.355004 -12.203166 -43.719419
Spine -42.169177 33.785817 14.249999
Head -15.639776 3.391277 8.880905
LeftShoulder -20.616563 18.337950 36.163257
LeftArm 29.934976 -78.671437 7.568292
LeftForeArm 100.413360 -0.000000 15.138630
LeftHand -18.165633 -0.000000 63.589827
LeftHandThumb1 -26.253704 0.000000 33.147579
RightShoulder -9.467925 -8.066406 -19.997648
RightArm 118.462413 40.670997 154.374983
RightForeArm 52.566866 -0.000000 58.038454
RightHand 0.948147 -0.000000 24.303862
RightHandThumb1 -24.326973 -0.000000 -32.862282
LeftUpLeg -40.835380 25.508021 27.546756
LeftLeg 12.267214 -0.000000 -0.000000
LeftFoot -4.798656 21.347070 10.959575
LeftToeBase -4.057962 -0.000000 0.000000
RightUpLeg -177.633872 -39.134780 54.806083
RightLeg -0.798926 -0.000000 0.000000
RightFoot 30.093545 -23.459344 14.168468
RightToeBase 31.408233 -0.000000 -0.000000
736
root 2.525957 34.793719 -4.076879 60.349474 -12.197732 -43.529085
Spine -41.860598 33.880992 14.479315
Head -16.113499 3.388314 8.055468
LeftShoulder -20.676776 18.376219 35.983050
LeftArm 29.682254 -78.336642 7.339785
LeftForeArm 100.566623 -0.000000 14.986534
LeftHand -18.401126 -0.000000 63.726098
LeftHandThumb1 -26.253704 0.000000 33.147579
RightShoulder -9.386947 -8.105605 -19.883155
RightArm 118.549114 40.712142 154.474773
RightForeArm 52.843733 -0.000000 57.582649
RightHand 1.125349 0.000000 24.288760
RightHandThumb1 -24.326973 -0.000000 -32.862282
LeftUpLeg -40.960068 25.288305 27.373879
LeftLeg 12.278383 -0.000000 -0.000000
LeftFoot -4.974908 21.334219 10.870349
LeftToeBase -3.948375 -0.000000 0.000000
RightUpLeg -177.242680 -38.898426 54.631280
RightLeg -0.501986 -0.000000 0.000000
RightFoot 30.268286 -23.467644 13.914586
RightToeBase 31.169688 -0.000000 -0.000000
737
root 2.567910 34.773701 -4.061568 60.368553 -12.189002 -43.375184
Spine -41.583158 34.022382 14.725837
Head -16.490678 3.353467 7.289539
LeftShoulder -20.694304 18.466044 35.817441
LeftArm 29.892106 -78.201482 6.535041
LeftForeArm 100.446991 -0.000000 15.045990
LeftHand -18.171314 -0.000000 63.540284
LeftHandThumb1 -26.253704 0.000000 33.147579
RightShoulder -9.266355 -8.214888 -19.809508
RightArm 118.709483 40.714725 154.711939
RightForeArm 53.061446 -0.000000 57.084785
RightHand 1.382730 -0.000000 24.322625
RightHandThumb1 -24.326973 -0.000000 -32.862282
LeftUpLeg -41.117588 25.199275 27.121302
LeftLeg 12.250671 -0.000000 -0.000000
LeftFoot -5.121398 21.291983 10.870120
LeftToeBase -3.859199 -0.000000 0.000000
RightUpLeg -176.800605 -38.644632 54.464178
RightLeg -0.179007 -0.000000 0.000000
RightFoot 30.244786 -23.597971 14.148120
RightToeBase 31.200333 -0.000000 -0.000000
738
root 2.611877 34.756782 -4.051805 60.447355 -12.161727 -43.208435
Spine -41.374670 34.142905 14.954434
Head -16.840004 3.285101 6.612837
LeftShoulder -20.695803 18.483268 35.740005
LeftArm 30.134538 -77.877275 5.642646
LeftForeArm 100.413195 -0.000000 15.010196
LeftHand -18.168788 -0.000000 63.576626
LeftHandThumb1 -26.253704 0.000000 33.147579
RightShoulder -9.089277 -8.285800 -19.708500
RightArm 118.896368 40.781508 154.910801
RightForeArm 53.292565 -0.000000 56.525019
RightHand 1.661816 -0.000000 24.296858
RightHandThumb1 -24.326973 -0.000000 -32.862282
LeftUpLeg -41.358311 25.102809 26.867910
LeftLeg 12.236525 -0.000000 -0.000000
LeftFoot -5.234438 21.250014 10.842242
LeftToeBase -3.799148 -0.000000 0.000000
RightUpLeg -176.386705 -38.378066 54.300548
RightLeg 0.144386 -0.000000 -0.000000
RightFoot 30.310833 -23.627368 14.176539
RightToeBase 31.508902 -0.000000 -0.000000
739
root 2.649843 34.735908 -4.034311 60.393942 -12.162971 -42.964086
Spine -41.049842 34.152253 15.198366
Head -17.161288 3.242756 5.907451
LeftShoulder -20.713036 18.609745 35.679638
LeftArm 30.827294 -77.778480 4.199535
LeftForeArm 100.387514 -0.000000 15.080727
LeftHand -18.028302 -0.000000 63.537807
LeftHandThumb1 -26.253704 0.000000 33.147579
RightShoulder -8.905497 -8.364207 -19.602690
RightArm 119.033280 40.821812 155.134825
RightForeArm 53.707096 -0.000000 55.948210
RightHand 1.956277 0.000000 24.354649
RightHandThumb1 -24.326973 -0.000000 -32.862282
LeftUpLeg -41.483617 24.949529 26.560930
LeftLeg 12.175681 -0.000000 -0.000000
LeftFoot -5.359421 21.146630 10.835540
LeftToeBase -3.765951 -0.000000 0.000000
RightUpLeg -175.998801 -38.198432 54.091974
RightLeg 0.567618 -0.000000 -0.000000
RightFoot 30.281612 -23.571168 14.453038
RightToeBase 31.652017 -0.000000 -0.000000
740
root 2.691812 34.718838 -4.020475 60.379061 -12.149165 -42.735805
Spine -40.745777 34.194228 15.458838
Head -17.495520 3.197061 5.129305
LeftShoulder -20.769240 18.765278 35.533481
LeftArm 30.872275 -77.496124 3.549098
LeftForeArm 100.328130 0.000000 14.910168
LeftHand -18.033482 -0.000000 63.657306
LeftHandThumb1 -26.253704 0.000000 33.147579
RightShoulder -8.695248 -8.427999 -19.498224
RightArm 119.135677 40.906142 155.316128
RightForeArm 54.084785 -0.000000 55.347542
RightHand 2.469447 -0.000000 24.275597
RightHandThumb1 -24.326973 -0.000000 -32.862282
LeftUpLeg -41.666765 24.824850 26.259477
LeftLeg 12.147028 -0.000000 -0.000000
LeftFoot -5.472610 21.016655 10.801864
LeftToeBase -3.700991 -0.000000 0.000000
RightUpLeg -175.611227 -38.013054 53.882343
RightLeg 1.052679 -0.000000 -0.000000
RightFoot 30.276889 -23.506276 14.398496
RightToeBase 31.771742 -0.000000 -0.000000
741
root 2.734216 34.703350 -4.007753 60.352702 -12.112582 -42.512270
Spine -40.404261 34.273832 15.746118
Head -17.885768 3.123499 4.251101
LeftShoulder -20.800616 18.912086 35.377080
LeftArm 31.228140 -77.339879 2.465755
LeftForeArm 100.476889 0.000000 14.865194
LeftHand -18.064929 0.000000 63.594532
LeftHandThumb1 -26.253704 0.000000 33.147579
RightShoulder -8.610191 -8.306896 -19.448342
RightArm 118.874849 41.215348 155.231785
RightForeArm 54.809445 -0.000000 54.730402
RightHand 3.146554 0.000000 24.071855
RightHandThumb1 -24.326973 -0.000000 -32.862282
LeftUpLeg -41.837470 24.625467 26.043329
LeftLeg 12.157840 -0.000000 -0.000000
LeftFoot -5.545942 20.926761 10.767288
LeftToeBase -3.727740 -0.000000 0.000000
RightUpLeg -175.199887 -37.847171 53.693660
RightLeg 1.531001 -0.000000 -0.000000
RightFoot 30.398016 -23.210478 13.946538
RightToeBase 31.509592 -0.000000 -0.000000
742
root 2.778625 34.689560 -3.995537 60.321337 -12.056131 -42.325393
Spine -40.056449 34.414829 16.055600
Head -18.300486 3.000849 3.354298
LeftShoulder -20.765882 18.991095 35.248482
LeftArm 31.093424 -77.016238 1.913614
LeftForeArm 100.288797 -0.000000 14.750855
LeftHand -17.942102 -0.000000 63.590379
LeftHandThumb1 -26.253704 0.000000 33.147579
RightShoulder -8.492573 -8.589305 -19.354370
RightArm 118.783116 41.318623 155.281314
RightForeArm 55.817087 -0.000000 54.138680
RightHand 3.942753 -0.000000 23.727053
RightHandThumb1 -24.326973 -0.000000 -32.862282
LeftUpLeg -41.984311 24.393469 25.910702
LeftLeg 12.198375 -0.000000 -0.000000
LeftFoot -5.612777 20.859150 10.728427
LeftToeBase -3.731240 -0.000000 0.000000
RightUpLeg -174.729253 -37.673071 53.522781
RightLeg 1.988770 -0.000000 -0.000000
RightFoot 30.378678 -22.954730 13.431634
RightToeBase 31.469528 -0.000000 -0.000000
743
root 2.821732 34.678813 -3.984270 60.269284 -11.915064 -42.120295
Spine -39.702153 34.503896 16.438818
Head -18.710556 2.888100 2.414677
LeftShoulder -20.716222 19.102013 35.081466
LeftArm 30.850580 -76.711147 1.537204
LeftForeArm 100.347231 -0.000000 14.523552
LeftHand -18.124353 -0.000000 63.633100
LeftHandThumb1 -26.253704 0.000000 33.147579
RightShoulder -8.387690 -9.018655 -19.262705
RightArm 118.459271 41.454906 155.116030
RightForeArm 57.254909 -0.000000 53.517134
RightHand 5.166891 -0.000000 22.915804
RightHandThumb1 -24.326973 -0.000000 -32.862282
LeftUpLeg -42.141831 24.059205 25.880100
LeftLeg 12.254376 -0.000000 -0.000000
LeftFoot -5.648066 20.814278 10.645197
LeftToeBase -3.750134 -0.000000 0.000000
RightUpLeg -174.265692 -37.596631 53.438102
RightLeg 2.438124 -0.000000 -0.000000
RightFoot 30.570507 -22.491351 12.255403
RightToeBase 31.079920 -0.000000 -0.000000
744
root 2.862476 34.672006 -3.972251 60.215509 -11.774928 -41.949349
Spine -39.335771 34.603056 16.838846
Head -19.120150 2.845676 1.529466
LeftShoulder -20.623814 19.243028 34.858895
LeftArm 30.091902 -76.372136 1.827476
LeftForeArm 100.309333 -0.000000 14.059666
LeftHand -18.242801 -0.000000 63.863026
LeftHandThumb1 -26.253704 0.000000 33.147579
RightShoulder -8.285331 -9.346649 -19.169714
RightArm 117.716831 41.857918 154.573783
RightForeArm 59.142244 0.000000 52.862008
RightHand 6.644448 0.000000 21.929725
RightHandThumb1 -24.326973 -0.000000 -32.862282
LeftUpLeg -42.285207 23.806272 25.842430
LeftLeg 12.304680 -0.000000 -0.000000
LeftFoot -5.663060 20.698482 10.572693
LeftToeBase -3.842225 -0.000000 0.000000
RightUpLeg -173.766101 -37.520683 53.348908
RightLeg 2.977983 -0.000000 -0.000000
RightFoot 30.227157 -22.006638 11.325120
RightToeBase 31.215862 -0.000000 -0.000000
